<?xml version="1.0" encoding="iso-8859-1"?>
<!-- Generator: Adobe Illustrator 19.0.0, SVG Export Plug-In . SVG Version: 6.00 Build 0)  -->
<svg version="1.1" id="Capa_1" xmlns="http://www.w3.org/2000/svg" xmlns:xlink="http://www.w3.org/1999/xlink" x="0px" y="0px"
	 viewBox="0 0 512 512" style="enable-background:new 0 0 512 512;" xml:space="preserve">
<linearGradient id="SVGID_1_" gradientUnits="userSpaceOnUse" x1="0" y1="258" x2="512" y2="258" gradientTransform="matrix(1 0 0 -1 0 514)">
	<stop  offset="0" style="stop-color:#80D8FF"/>
	<stop  offset="1" style="stop-color:#EA80FC"/>
</linearGradient>
<path style="fill:url(#SVGID_1_);" d="M256,512C114.516,512,0,397.503,0,256C0,114.517,114.497,0,256,0
	c141.484,0,256,114.497,256,256C512,397.483,397.503,512,256,512z M256,40C136.623,40,40,136.607,40,256
	c0,119.377,96.607,216,216,216c119.377,0,216-96.607,216-216C472,136.623,375.393,40,256,40z M128.721,383.279
	c-5.895-5.896-7.515-14.829-4.065-22.419l70.711-155.563c2.001-4.402,5.529-7.93,9.932-9.931l155.563-70.71
	c7.589-3.45,16.522-1.831,22.418,4.064c5.895,5.896,7.515,14.829,4.065,22.419l-70.711,155.563c-2.001,4.402-5.529,7.93-9.932,9.931
	l-155.563,70.71C143.505,390.815,134.581,389.14,128.721,383.279z M228.678,228.677L183.14,328.86l100.183-45.537L328.86,183.14
	L228.678,228.677z"/>
<g>
</g>
<g>
</g>
<g>
</g>
<g>
</g>
<g>
</g>
<g>
</g>
<g>
</g>
<g>
</g>
<g>
</g>
<g>
</g>
<g>
</g>
<g>
</g>
<g>
</g>
<g>
</g>
<g>
</g>
</svg>
