<?xml version="1.0" encoding="iso-8859-1"?>
<!-- Generator: Adobe Illustrator 19.0.0, SVG Export Plug-In . SVG Version: 6.00 Build 0)  -->
<svg version="1.1" id="Capa_1" xmlns="http://www.w3.org/2000/svg" xmlns:xlink="http://www.w3.org/1999/xlink" x="0px" y="0px"
	 viewBox="0 0 512 512" style="enable-background:new 0 0 512 512;" xml:space="preserve">
<linearGradient id="SVGID_1_" gradientUnits="userSpaceOnUse" x1="98" y1="258" x2="414" y2="258" gradientTransform="matrix(1 0 0 -1 0 514)">
	<stop  offset="0" style="stop-color:#80D8FF"/>
	<stop  offset="1" style="stop-color:#EA80FC"/>
</linearGradient>
<path style="fill:url(#SVGID_1_);" d="M153,0c-30.327,0-55,24.673-55,55s24.673,55,55,55s55-24.673,55-55S183.327,0,153,0z M153,70
	c-8.271,0-15-6.729-15-15s6.729-15,15-15s15,6.729,15,15S161.271,70,153,70z M414,176c0,11.046-8.954,20-20,20s-20-8.954-20-20
	c0-33.084-26.916-60-60-60s-60,26.916-60,60v70h70c11.046,0,20,8.954,20,20c0,11.046-8.954,20-20,20h-70v206
	c0,11.046-8.954,20-20,20s-20-8.954-20-20V176c0-55.141,44.859-100,100-100S414,120.859,414,176z"/>
<g>
</g>
<g>
</g>
<g>
</g>
<g>
</g>
<g>
</g>
<g>
</g>
<g>
</g>
<g>
</g>
<g>
</g>
<g>
</g>
<g>
</g>
<g>
</g>
<g>
</g>
<g>
</g>
<g>
</g>
</svg>
