<?xml version="1.0" encoding="iso-8859-1"?>
<!-- Generator: Adobe Illustrator 19.0.0, SVG Export Plug-In . SVG Version: 6.00 Build 0)  -->
<svg version="1.1" id="Capa_1" xmlns="http://www.w3.org/2000/svg" xmlns:xlink="http://www.w3.org/1999/xlink" x="0px" y="0px"
	 viewBox="0 0 512 512" style="enable-background:new 0 0 512 512;" xml:space="preserve">
<linearGradient id="SVGID_1_" gradientUnits="userSpaceOnUse" x1="0" y1="258.0006" x2="512" y2="258.0006" gradientTransform="matrix(1 0 0 -1 0 514.0006)">
	<stop  offset="0" style="stop-color:#80D8FF"/>
	<stop  offset="1" style="stop-color:#EA80FC"/>
</linearGradient>
<path style="fill:url(#SVGID_1_);" d="M512,150.001v255.997c0,11.046-8.954,20-20,20s-20-8.954-20-20V150.001
	c0-22.056-17.944-40-40-40H196.337l53.323,32.992c9.393,5.811,12.296,18.138,6.484,27.53c-5.836,9.433-18.176,12.273-27.531,6.485
	L115.477,107.01c-12.662-7.832-12.564-26.244,0-34.015l113.136-70c9.393-5.811,21.719-2.91,27.531,6.485
	c5.812,9.393,2.908,21.719-6.484,27.53l-53.323,32.992H432C476.112,70.002,512,105.89,512,150.001z M396.523,404.991
	l-113.137-69.999c-9.392-5.811-21.72-2.91-27.531,6.485c-5.812,9.393-2.908,21.719,6.484,27.53l53.323,32.992H80
	c-22.056,0-40-17.944-40-40V106.002c0-11.046-8.954-20-20-20s-20,8.954-20,20v255.997c0,44.112,35.888,79.999,80,79.999h235.663
	L262.34,474.99c-9.393,5.811-12.296,18.138-6.484,27.53c5.84,9.439,18.177,12.271,27.531,6.485l113.137-69.999
	C409.249,431.135,409.026,412.725,396.523,404.991z"/>
<g>
</g>
<g>
</g>
<g>
</g>
<g>
</g>
<g>
</g>
<g>
</g>
<g>
</g>
<g>
</g>
<g>
</g>
<g>
</g>
<g>
</g>
<g>
</g>
<g>
</g>
<g>
</g>
<g>
</g>
</svg>
