<svg height="480pt" viewBox="-96 0 480 480" width="480pt" xmlns="http://www.w3.org/2000/svg" xmlns:xlink="http://www.w3.org/1999/xlink"><linearGradient id="a" gradientUnits="userSpaceOnUse" x1="-10.888" x2="298.888" y1="405.112" y2="95.336"><stop offset="0" stop-color="#41dfd0"/><stop offset="1" stop-color="#ee83ef"/></linearGradient><path d="m167.246094 112-8-24.71875c-2.15625-6.566406-8.285156-11.003906-15.199219-11.003906-6.910156 0-13.039063 4.4375-15.199219 11.003906l-8 24.71875h-26.085937c-6.929688.003906-13.066407 4.464844-15.210938 11.054688-2.140625 6.585937.199219 13.804687 5.800781 17.882812l21.046876 15.285156-8 24.714844c-2.222657 6.59375.140624 13.867188 5.816406 17.894531 5.582031 4.148438 13.222656 4.148438 18.800781 0l20.984375-15.273437 21.03125 15.273437c5.609375 4.070313 13.199219 4.066407 18.804688-.007812 5.605468-4.070313 7.949218-11.289063 5.8125-17.878907l-8-24.730468 21.03125-15.269532c5.613281-4.078124 7.957031-11.308593 5.808593-17.90625-2.152343-6.597656-8.308593-11.054687-15.25-11.039062zm4.960937 31.28125c-5.617187 4.066406-7.964843 11.296875-5.808593 17.886719l8.042968 24.710937-21.035156-15.261718c-5.601562-4.089844-13.210938-4.089844-18.8125 0l-20.992188 15.261718 8-24.710937c2.15625-6.589844-.191406-13.820313-5.808593-17.886719l-21.03125-15.28125h25.992187c6.945313.011719 13.101563-4.457031 15.246094-11.0625l8-24.800781v.09375l8 24.714843c2.144531 6.601563 8.304688 11.066407 15.246094 11.054688h25.992187zm-20.207031-94.875v-8.40625c0-4.417969-3.582031-8-8-8s-8 3.582031-8 8v8.40625c-49.773438 4.078125-88.089844 45.660156-88.089844 95.601562 0 49.941407 38.316406 91.523438 88.089844 95.601563v24.390625c0 4.417969 3.582031 8 8 8s8-3.582031 8-8v-24.40625c49.773438-4.078125 88.089844-45.660156 88.089844-95.601562 0-49.941407-38.316406-91.523438-88.089844-95.601563zm-8 175.59375c-44.183594 0-80-35.816406-80-80s35.816406-80 80-80 80 35.816406 80 80c-.046875 44.164062-35.835938 79.953125-80 80zm0-224c-79.492188.09375-143.90625 64.507812-144 144 .0273438 43.382812 11.285156 86.015625 32.671875 123.761719l104.449219 176.316406c1.441406 2.429687 4.054687 3.917969 6.878906 3.917969s5.4375-1.488282 6.878906-3.917969l104.527344-176.453125c21.34375-37.710938 32.570312-80.296875 32.59375-123.625-.09375-79.492188-64.507812-143.90625-144-144zm97.601562 259.601562-97.601562 164.703126-97.488281-164.570313c-19.980469-35.300781-30.492188-75.171875-30.511719-115.734375 0-70.691406 57.308594-128 128-128s128 57.308594 128 128c0 40.507812-10.472656 80.332031-30.398438 115.601562zm-113.601562 204.398438h32v16h-32zm48 0h16v16h-16zm32 0h16v16h-16zm-144 0h16v16h-16zm32 0h16v16h-16zm55.359375-171.039062c1.277344 2.976562.613281 6.429687-1.679687 8.71875-2.289063 2.292968-5.742188 2.957031-8.71875 1.679687-.96875-.40625-1.863282-.972656-2.640626-1.679687-1.503906-1.503907-2.339843-3.550782-2.320312-5.679688-.027344-1.050781.191406-2.089844.640625-3.039062.40625-.96875.972656-1.863282 1.679687-2.640626 3.207032-2.960937 8.152344-2.960937 11.359376 0 .707031.777344 1.273437 1.671876 1.679687 2.640626zm0 0" fill="url(#a)"/></svg>