<svg height="512pt" viewBox="-16 0 512 512.00001" width="512pt" xmlns="http://www.w3.org/2000/svg" xmlns:xlink="http://www.w3.org/1999/xlink"><linearGradient id="a" gradientTransform="matrix(.434975 0 0 -.434975 -15.743575 511.47611)" gradientUnits="userSpaceOnUse" x1="61.3309" x2="995.5425" y1="-12.1125" y2="922.0989"><stop offset="0" stop-color="#41dfd0"/><stop offset="1" stop-color="#ee83ef"/></linearGradient><path d="m177.5625 135.875h-20.890625c-.027344-42.875 28.980469-80.332031 70.5-91.03125l5.222656 20.21875c-32.289062 8.335938-54.84375 37.464844-54.832031 70.8125zm-156.664062 88.777344c.058593-52.894532 41.554687-96.464844 94.382812-99.105469 5.65625-74.773437 70.855469-130.808594 145.628906-125.152344 66.910156 5.058594 120.09375 58.238281 125.152344 125.152344 54.734375 2.636719 96.96875 49.144531 94.332031 103.878906-2.546875 52.90625-46.199219 94.480469-99.167969 94.449219h-261.109374c-54.769532-.0625-99.15625-44.449219-99.21875-99.222656zm20.886718 0c.046875 43.242187 35.089844 78.289062 78.332032 78.332031h261.109374c43.261719 0 78.332032-35.070313 78.332032-78.332031 0-43.261719-35.070313-78.332032-78.332032-78.332032h-15.667968v-10.445312c0-63.449219-51.433594-114.886719-114.886719-114.886719-63.449219 0-114.886719 51.4375-114.886719 114.886719v10.445312h-15.667968c-43.242188.046876-78.285157 35.089844-78.332032 78.332032zm213.554688 121.15625c-5.15625-2.582032-11.429688-.488282-14.011719 4.671875 0 0 0 .003906-.003906.007812l-10.445313 20.886719c-2.617187 5.140625-.570312 11.429688 4.566406 14.046875 5.140626 2.617187 11.429688.574219 14.050782-4.566406.023437-.046875.046875-.09375.070312-.144531l10.445313-20.886719c2.546875-5.148438.460937-11.386719-4.671875-13.964844zm83.554687 0c-5.15625-2.582032-11.429687-.488282-14.011719 4.671875 0 0 0 .003906-.003906.007812l-10.441406 20.886719c-2.621094 5.140625-.574219 11.429688 4.5625 14.046875 5.140625 2.617187 11.429688.574219 14.050781-4.566406.023438-.046875.046875-.09375.070313-.144531l10.445312-20.886719c2.546875-5.148438.460938-11.386719-4.671875-13.964844zm68.433594 40.730468c3.976563.023438 7.621094-2.214843 9.398437-5.773437l10.445313-20.890625c2.617187-5.140625.574219-11.429688-4.566406-14.046875s-11.429688-.574219-14.046875 4.566406c-.023438.046875-.046875.097657-.074219.144531l-10.441406 20.890626c-2.578125 5.15625-.488281 11.429687 4.671875 14.007812 1.433594.71875 3.011718 1.09375 4.613281 1.101562zm-241.265625-5.773437 10.445312-20.890625c2.617188-5.136719.574219-11.429688-4.566406-14.046875s-11.429687-.574219-14.046875 4.566406c-.023437.046875-.046875.097657-.074219.144531l-10.441406 20.890626c-2.621094 5.136718-.578125 11.425781 4.5625 14.046874 5.140625 2.617188 11.429688.574219 14.046875-4.566406.027344-.046875.050781-.097656.074219-.144531zm-92.953125 5.773437c3.957031.003907 7.578125-2.234374 9.347656-5.773437l10.441407-20.890625c2.621093-5.136719.578124-11.429688-4.5625-14.046875-5.140626-2.617187-11.429688-.574219-14.046876 4.566406-.027343.046875-.050781.097657-.074218.144531l-10.445313 20.890626c-2.578125 5.15625-.484375 11.429687 4.675781 14.007812 1.449219.726562 3.042969 1.101562 4.664063 1.101562zm136.882813 26.664063-10.445313 20.890625c-2.617187 5.140625-.574219 11.429688 4.566406 14.046875 5.136719 2.621094 11.425781.574219 14.046875-4.5625.023438-.050781.046875-.097656.070313-.148437l10.445312-20.886719c2.617188-5.140625.574219-11.429688-4.5625-14.046875-5.140625-2.621094-11.429687-.578125-14.050781 4.5625-.023438.050781-.046875.097656-.070312.144531zm83.554687 0-10.445313 20.890625c-2.617187 5.140625-.574218 11.429688 4.566407 14.046875s11.429687.574219 14.046875-4.566406c.027344-.046875.050781-.09375.074218-.144531l10.441407-20.886719c2.621093-5.140625.574219-11.429688-4.566407-14.046875-5.136718-2.617188-11.425781-.574219-14.046874 4.566406-.023438.046875-.046876.09375-.070313.140625zm82.449219 36.003906c3.976562.019531 7.621094-2.21875 9.398437-5.777343l10.445313-20.886719c2.617187-5.140625.574218-11.429688-4.566406-14.046875-5.140626-2.617188-11.429688-.574219-14.046876 4.566406-.027343.046875-.050781.09375-.074218.140625l-10.441406 20.890625c-2.582032 5.160156-.488282 11.433594 4.671874 14.011719 1.433594.714843 3.011719 1.09375 4.613282 1.101562zm-241.265625-5.777343 10.441406-20.886719c2.621094-5.140625.578125-11.429688-4.5625-14.046875-5.140625-2.621094-11.429687-.578125-14.046875 4.5625-.027344.050781-.050781.097656-.074219.144531l-10.445312 20.890625c-2.617188 5.140625-.574219 11.429688 4.566406 14.046875 5.140625 2.621094 11.429687.574219 14.046875-4.5625.027344-.050781.050781-.097656.074219-.148437zm-77.78125-34.902344c-5.15625-2.582032-11.433594-.488282-14.011719 4.667968 0 .003907-.003906.007813-.003906.007813l-10.445313 20.890625c-2.617187 5.140625-.574219 11.429688 4.566407 14.046875 5.140624 2.617187 11.429687.574219 14.046874-4.566406.023438-.046875.050782-.09375.074219-.144531l10.441407-20.886719c2.570312-5.164063.46875-11.433594-4.695313-14.003907-.007813-.003906-.015625-.007812-.023437-.011718zm115.945312 102.300781c5.160157 2.574219 11.429688.480469 14.003907-4.679687l10.445312-20.886719c2.617188-5.140625.574219-11.429688-4.566406-14.046875-5.136719-2.621094-11.425782-.578125-14.046875 4.5625-.023438.050781-.046875.097656-.070313.144531l-10.445312 20.890625c-2.578125 5.160156-.488282 11.433594 4.671875 14.011719 0 0 .003906.003906.007812.003906zm83.554688 0c5.160156 2.574219 11.429687.480469 14.003906-4.679687l10.445313-20.886719c2.617187-5.140625.574218-11.429688-4.566407-14.046875-5.140625-2.621094-11.429687-.574219-14.046875 4.566406-.023437.046875-.046875.09375-.074218.140625l-10.441407 20.890625c-2.582031 5.160156-.488281 11.433594 4.671875 14.011719 0 0 .003906.003906.007813.003906zm83.554687 0c5.160156 2.574219 11.429688.480469 14.003906-4.679687l10.445313-20.886719c2.617187-5.140625.574219-11.429688-4.566406-14.046875-5.140625-2.621094-11.429688-.574219-14.046875 4.566406-.023438.046875-.046875.09375-.070313.140625l-10.445312 20.890625c-2.582031 5.160156-.488281 11.433594 4.671875 14.011719 0 0 .003906.003906.007812.003906zm-230.882812-39.582031c-5.160156-2.582032-11.433594-.488282-14.011719 4.667968-.003906.003907-.003906.007813-.003906.007813l-10.445313 20.890625c-2.621094 5.140625-.574218 11.429688 4.5625 14.046875 5.140625 2.617187 11.429688.574219 14.050782-4.566406.023437-.046875.046874-.09375.070312-.144531l10.445312-20.886719c2.605469-5.148438.542969-11.429688-4.601562-14.035157-.023438-.011718-.046875-.023437-.066406-.035156zm-103.335938 39.582031c5.160156 2.574219 11.429688.480469 14.003906-4.679687l10.445313-20.886719c2.617187-5.140625.574219-11.429688-4.566406-14.046875-5.140625-2.621094-11.429688-.574219-14.046875 4.5625-.023438.050781-.046875.097656-.070313.144531l-10.445312 20.890625c-2.582031 5.160156-.488281 11.433594 4.671875 14.011719 0 0 .003906.003906.007812.003906zm401.554688-249.621094h-41.78125v20.890625h41.78125zm-62.667969 0h-20.890625v20.890625h20.890625zm0 0" fill="url(#a)"/></svg>