<svg height="512pt" viewBox="0 0 512.00074 512" width="512pt" xmlns="http://www.w3.org/2000/svg" xmlns:xlink="http://www.w3.org/1999/xlink"><linearGradient id="a" gradientTransform="matrix(.355387 0 0 -.355387 0 503.223881)" gradientUnits="userSpaceOnUse" x1="209.5674" x2="1228.2749" y1="186.278" y2="1204.9855"><stop offset="0" stop-color="#41dfd0"/><stop offset="1" stop-color="#ee83ef"/></linearGradient><path d="m251.734375 223.351562-21.898437 12.648438c-2.640626 1.523438-4.265626 4.339844-4.265626 7.386719v25.304687c0 3.046875 1.625 5.863282 4.265626 7.386719l21.898437 12.648437c2.640625 1.523438 5.890625 1.523438 8.53125 0l21.90625-12.648437c2.640625-1.523437 4.265625-4.339844 4.265625-7.386719v-25.304687c0-3.046875-1.625-5.863281-4.265625-7.386719l-21.90625-12.648438c-2.640625-1.523437-5.890625-1.523437-8.53125 0zm17.59375 24.96875v15.4375l-13.328125 7.722657-13.363281-7.679688v-15.480469l13.363281-7.679687zm234.136719-.851562h-27.304688l8.910156-14.253906c2.496094-4.003906 1.273438-9.277344-2.730468-11.773438-4.007813-2.5-9.28125-1.277344-11.777344 2.730469l-14.488281 23.296875h-23.605469l18.5-29.613281c2.5-4.003907 1.277344-9.277344-2.730469-11.777344-4.003906-2.496094-9.277343-1.273437-11.777343 2.734375l-24.121094 38.65625h-20.925782l19.628907-29.398438c2.613281-3.921874 1.554687-9.222656-2.363281-11.835937-3.921876-2.617187-9.222657-1.558594-11.835938 2.363281l-25.941406 38.871094h-54.613282v-21.335938c0-3.046874-1.628906-5.863281-4.269531-7.390624l-4.222656-2.449219 35.507813-35.503907 45.816406 9.15625c.558594.109376 1.132812.167969 1.703125.167969 4.714843.03125 8.558593-3.769531 8.585937-8.480469.027344-4.09375-2.859375-7.628906-6.878906-8.421874l-34.644531-6.929688 14.796875-14.796875 42.359375 9.796875c.632812.140625 1.273437.210938 1.921875.210938 4.710937-.011719 8.523437-3.839844 8.511718-8.554688-.011718-3.960938-2.746093-7.390625-6.601562-8.289062l-32.058594-7.40625 16.691406-16.691407 26.765626 6.1875c.632812.140625 1.277343.210938 1.921874.210938 4.710938.007812 8.539063-3.804688 8.546876-8.515625.007812-3.988282-2.746094-7.449219-6.636719-8.335938l-16.367188-3.773437 19.277344-19.285157c3.46875-3.191406 3.691406-8.589843.5-12.058593-3.191406-3.464844-8.589844-3.691407-12.054687-.5-.175782.160156-.34375.328125-.5.5l-19.289063 19.277343-3.753906-16.375c-1.0625-4.59375-5.648438-7.457031-10.242188-6.394531-4.597656 1.0625-7.460937 5.648438-6.398437 10.242188l6.179687 26.761719-16.71875 16.691406-7.804687-34.023438c-1.0625-4.589844-5.644532-7.453125-10.238282-6.394531-4.589843 1.0625-7.453124 5.644531-6.394531 10.234375l10.238281 44.425781-14.796874 14.796875-6.96875-34.652344c-.992188-4.609374-5.527344-7.542968-10.136719-6.550781-4.515625.96875-7.4375 5.355469-6.597657 9.894531l9.164063 45.808594-38.738281 38.738282-27.929688-16.125v-50.238282l38.867188-25.898437c3.925781-2.613281 4.984375-7.914063 2.367187-11.839844-2.613281-3.921875-7.914062-4.984375-11.839843-2.367187l-29.394532 19.601562v-20.925781l36.949219-23.097657c4.003906-2.5 5.226563-7.769531 2.730469-11.777343-2.5-4.003907-7.769532-5.226563-11.777344-2.730469l-27.902344 17.476562v-23.605468l23.292969-14.5625c4.007813-2.5 5.230469-7.773438 2.730469-11.777344-2.496094-4.003906-7.769532-5.226562-11.773438-2.730469l-14.253906 8.976563v-27.304688c0-4.714844-3.820312-8.535156-8.53125-8.535156s-8.53125 3.820312-8.53125 8.535156v27.304688l-14.253906-8.941406c-4.003906-2.5-9.277344-1.277344-11.773438 2.730468-2.5 4.003906-1.277344 9.277344 2.730469 11.773438l23.296875 14.535156v23.601562l-29.613281-18.507812c-4.003907-2.5-9.277344-1.277344-11.777344 2.730469-2.496094 4.003906-1.273437 9.277343 2.734375 11.777343l38.65625 24.128907v20.925781l-29.398438-19.625c-3.925781-2.617188-9.226562-1.558594-11.839843 2.367188-2.617188 3.921874-1.554688 9.222656 2.367187 11.839843l38.871094 25.921875v50.238282l-27.941406 16.128906-38.742188-38.742188 9.167969-45.84375c.855469-4.632812-2.203125-9.085937-6.839844-9.941406-4.539062-.839844-8.925781 2.082031-9.894531 6.597656l-6.929688 34.652344-14.804687-14.804688 9.796875-42.425781c1.054688-4.59375-1.808594-9.175781-6.402344-10.234375s-9.171875 1.808594-10.230468 6.402344l-7.398438 32.058594-16.683594-16.691406 6.179688-26.761719c1.0625-4.59375-1.800782-9.179688-6.398438-10.242188-4.59375-1.0625-9.179687 1.800781-10.242187 6.394531l-3.78125 16.375-19.285157-19.277343c-3.191406-3.464844-8.589843-3.691407-12.058593-.496094-3.464844 3.191406-3.691407 8.589844-.5 12.054687.160156.175782.328125.339844.5.5l19.277343 19.285157-16.367187 3.773437c-4.59375 1.046875-7.472656 5.621094-6.421875 10.214844.882812 3.890625 4.347656 6.644531 8.332031 6.636719.648438 0 1.292969-.070313 1.921875-.210938l26.769532-6.1875 16.691406 16.691407-34.015625 7.824218c-4.59375 1.046875-7.46875 5.621094-6.421875 10.214844.882812 3.886719 4.339844 6.640625 8.324218 6.636719.648438.003906 1.296876-.070313 1.929688-.210938l44.417969-10.242187 14.796875 14.796875-34.648438 6.929687c-4.621094.914063-7.628906 5.402344-6.714844 10.027344.792969 4.015625 4.328126 6.902344 8.421876 6.878906.574218 0 1.144531-.058594 1.707031-.171875l45.808593-9.15625 35.507813 35.507813-4.269531 2.449218c-2.640625 1.523438-4.265625 4.339844-4.265625 7.390626v21.351562h-54.613281l-25.949219-38.871094c-2.613281-3.921875-7.914063-4.980468-11.835938-2.363281-3.921875 2.613281-4.980469 7.914063-2.363281 11.835937l19.585938 29.398438h-20.925782l-23.089844-36.949219c-2.5-4.007812-7.769531-5.230469-11.777343-2.734375-4.003907 2.5-5.226563 7.773438-2.730469 11.777344l17.46875 27.90625h-23.605469l-14.558593-23.296875c-2.496094-4.007813-7.769532-5.230469-11.773438-2.730469-4.007812 2.496094-5.230469 7.769532-2.730469 11.773438l8.976563 14.253906h-27.308594c-4.710938 0-8.53125 3.820312-8.53125 8.53125 0 4.714844 3.820312 8.535156 8.53125 8.535156h27.308594l-8.941406 14.25c-2.5 4.003906-1.277344 9.277344 2.730468 11.773438 4.003906 2.5 9.277344 1.277344 11.773438-2.730469l14.523437-23.292969h23.605469l-18.5 29.609375c-2.5 4.003907-1.277344 9.277344 2.730469 11.777344 4.003906 2.496094 9.277343 1.273437 11.773437-2.730469l24.125-38.65625h20.925782l-19.628907 29.394532c-2.613281 3.921874-1.554687 9.222656 2.363281 11.835937 3.921876 2.617187 9.222657 1.558594 11.835938-2.363281l25.941406-38.867188h54.613282v21.332032c0 3.046874 1.628906 5.867187 4.269531 7.390624l4.265625 2.449219-35.507813 35.507813-45.859375-9.15625c-4.632812-.859375-9.085937 2.203125-9.941406 6.835937-.839844 4.542969 2.082031 8.925781 6.597656 9.894531l34.644532 6.929688-14.796876 14.796875-42.425781-9.796875c-4.59375-1.054688-9.175781 1.808594-10.234375 6.402344-1.054687 4.59375 1.808594 9.171875 6.402344 10.230468l32.058594 7.40625-16.691406 16.691407-26.769532-6.183594c-4.59375-1.058594-9.175781 1.808594-10.234375 6.402344-1.058593 4.59375 1.808594 9.179687 6.40625 10.234375l16.363281 3.773437-19.273437 19.285157c-3.46875 3.191406-3.691406 8.589843-.5 12.058593 3.191406 3.464844 8.589844 3.691407 12.054687.5.175782-.160156.339844-.328125.5-.5l19.277344-19.277343 3.78125 16.375c.898438 3.867187 4.34375 6.605468 8.3125 6.605468.648438 0 1.292969-.070312 1.925782-.214844 4.59375-1.054687 7.460937-5.636718 6.402343-10.226562 0-.003906 0-.007812 0-.011719l-6.179687-26.761719 16.691406-16.691406 7.851562 34.023438c.894532 3.871094 4.339844 6.613281 8.3125 6.613281.644532-.003906 1.289063-.078125 1.917969-.222656 4.59375-1.054688 7.460938-5.636719 6.402344-10.230469 0 0 0-.003906-.003906-.007812l-10.238281-44.425782 14.796874-14.796875 6.929688 34.65625c.808594 3.96875 4.300781 6.820313 8.351562 6.824219.574219.003906 1.148438-.054688 1.707032-.167969 4.574218-.9375 7.546875-5.375 6.675781-9.960937l-9.167969-45.804688 38.742188-38.742187 27.9375 16.089843v50.238282l-38.867188 25.898437c-3.925781 2.613281-4.984375 7.917969-2.367187 11.839844 2.613281 3.921875 7.914062 4.984375 11.839843 2.367187l29.394532-19.601562v20.925781l-36.949219 23.097657c-4.003906 2.5-5.226563 7.769531-2.730469 11.777343 2.5 4.003907 7.769532 5.226563 11.777344 2.730469l27.902344-17.476562v23.605468l-23.292969 14.566406c-4.007813 2.496094-5.230469 7.769532-2.730469 11.773438 2.496094 4.007812 7.769532 5.230469 11.773438 2.730469l14.25-8.976563v27.308594c0 4.710938 3.820312 8.53125 8.535156 8.53125 4.710938 0 8.53125-3.820312 8.53125-8.53125v-27.308594l14.253906 8.910156c4.003906 2.496094 9.277344 1.273438 11.773438-2.730468 2.5-4.007813 1.277344-9.277344-2.730469-11.777344l-23.296875-14.496094v-23.605468l29.613281 18.511718c4.003907 2.496094 9.277344 1.273438 11.773438-2.734375 2.5-4.003906 1.277343-9.277343-2.730469-11.773437l-38.65625-24.132813v-20.925781l29.398438 19.628906c3.925781 2.613282 9.226562 1.554688 11.839843-2.367187 2.617188-3.925781 1.554688-9.226563-2.367187-11.839844l-38.871094-25.925781v-50.238282l27.941406-16.125 38.738282 38.738282-9.164063 45.84375c-.917969 4.617187 2.074219 9.109375 6.691406 10.035156.5625.117188 1.132813.171875 1.707031.167969 4.050782 0 7.542969-2.855469 8.351563-6.824219l6.929687-34.65625 14.804688 14.808594-9.8125 42.390625c-1.0625 4.59375 1.800781 9.175781 6.390625 10.238281.003906 0 .007813.003906.011719.003906.628906.140625 1.273437.214844 1.917968.214844 3.972657-.003906 7.417969-2.746094 8.3125-6.613281l7.398438-32.0625 16.683594 16.691406-6.179688 26.761719c-1.0625 4.589844 1.796875 9.175781 6.390625 10.238281h.007813c.632812.144531 1.28125.214844 1.929687.214844 3.96875 0 7.414063-2.738281 8.3125-6.605469l3.78125-16.375 19.285157 19.269531c3.464843 3.191407 8.863281 2.964844 12.054687-.5 3.007813-3.265625 3.007813-8.292969 0-11.558593l-19.273437-19.285157 16.363281-3.773437c4.597656-1.058594 7.464843-5.640625 6.40625-10.234375-1.058594-4.59375-5.640625-7.464844-10.234375-6.40625l-26.769532 6.1875-16.691406-16.699219 34.011719-7.816406c4.597656-1.058594 7.464844-5.640625 6.40625-10.234375-1.058594-4.597657-5.640625-7.464844-10.238281-6.40625l-44.371094 10.242187-14.796875-14.796875 34.644531-6.929687c4.609375-.992188 7.542969-5.527344 6.550782-10.136719-.96875-4.515625-5.355469-7.4375-9.894532-6.597656l-45.808594 9.15625-35.507812-35.507813 4.226562-2.449218c2.640626-1.523438 4.265626-4.339844 4.265626-7.390626v-21.347656h54.613281l25.882812 38.867188c2.613281 3.921875 7.914063 4.980468 11.835938 2.363281 3.921875-2.613281 4.976562-7.914063 2.363281-11.835937l-19.585938-29.394532h20.925782l23.089844 36.949219c2.5 4.003906 7.769531 5.226563 11.777343 2.730469 4.003907-2.5 5.226563-7.769532 2.730469-11.777344l-17.46875-27.902344h23.605469l14.558593 23.292969c2.496094 4.007813 7.769532 5.230469 11.773438 2.730469 4.007812-2.496094 5.230469-7.769532 2.730469-11.773438l-8.976563-14.25h27.308594c4.710938 0 8.53125-3.820312 8.53125-8.535156 0-4.710938-3.820312-8.53125-8.535156-8.53125zm-204.269532 33.472656-43.195312 24.9375-43.203125-24.9375v-49.882812l43.203125-24.9375 43.195312 24.9375zm0 0" fill="url(#a)"/></svg>