<svg height="512pt" viewBox="0 -4 512.00001 512" width="512pt" xmlns="http://www.w3.org/2000/svg" xmlns:xlink="http://www.w3.org/1999/xlink"><linearGradient id="a" gradientTransform="matrix(.36141 0 0 -.36141 0 516.006435)" gradientUnits="userSpaceOnUse" x1="202.2657" x2="1071.859" y1="399.1117" y2="1268.7051"><stop offset="0" stop-color="#41dfd0"/><stop offset="1" stop-color="#ee83ef"/></linearGradient><path d="m199.296875 314.664062-9.257813 34.714844c-1.074218 4.667969-5.730468 7.585938-10.402343 6.515625-4.667969-1.074219-7.585938-5.730469-6.511719-10.402343.042969-.199219.097656-.398438.15625-.59375l9.25-34.710938c1.160156-4.648438 5.871094-7.480469 10.519531-6.320312 4.652344 1.15625 7.480469 5.867187 6.324219 10.515624-.023438.097657-.050781.191407-.078125.28125zm111.175781 131.65625c2.679688 0 5.210938-1.242187 6.855469-3.359374l53.992187-69.421876c3.066407-3.6875 2.566407-9.15625-1.117187-12.222656s-9.15625-2.566406-12.222656 1.121094c-.121094.144531-.238281.296875-.351563.453125l-53.996094 69.421875c-2.941406 3.785156-2.261718 9.234375 1.523438 12.179688 1.519531 1.179687 3.390625 1.824218 5.316406 1.828124zm-43.25 53.671876 24.105469-30.988282c2.945313-3.78125 2.265625-9.234375-1.515625-12.179687-3.78125-2.945313-9.234375-2.269531-12.179688 1.515625l-24.105468 30.996094c-3.027344 3.714843-2.464844 9.183593 1.25 12.207031 3.71875 3.027343 9.183594 2.46875 12.207031-1.25.082031-.097657.160156-.199219.238281-.300781zm-76.011718-92.175782-8.679688 32.542969c-1.3125 4.605469 1.359375 9.410156 5.96875 10.722656 4.605469 1.3125 9.410156-1.355469 10.722656-5.964843.027344-.09375.050782-.1875.074219-.28125l8.679687-32.542969c1.3125-4.609375-1.355468-9.410157-5.964843-10.726563-4.609375-1.3125-9.414063 1.359375-10.726563 5.96875-.027344.09375-.050781.1875-.074218.28125zm320.789062-195.1875c-.046875 40.71875-33.042969 73.714844-73.761719 73.765625h-127.566406l-19.960937 43.386719h39.050781c4.792969.003906 8.679687 3.890625 8.675781 8.683594 0 1.929687-.644531 3.800781-1.828125 5.324218l-121.492187 156.203126c-2.945313 3.78125-8.394532 4.460937-12.175782 1.515624-2.953125-2.300781-4.101562-6.234374-2.84375-9.757812l39.25-109.898438h-31.078125c-4.792969 0-8.675781-3.886718-8.675781-8.679687 0-.753906.097656-1.507813.292969-2.238281l22.546875-84.539063h-44.535156c-40.71875-.050781-73.714844-33.046875-73.761719-73.765625 0-1.464844.121093-2.898437.207031-4.335937h-43.597656c-33.550782 0-60.746094-27.199219-60.746094-60.746094 0-33.550781 27.195312-60.746094 60.746094-60.746094h.71875c4.269531-25.039062 25.953125-43.359375 51.347656-43.390625 10.441406-.03125 20.644531 3.125 29.246094 9.042969 11.710937-38.949219 52.78125-61.027344 91.730468-49.3125 14.195313 4.269531 26.773438 12.722656 36.085938 24.257813 47.585938-7.46875 94.582031 16.496093 116.476562 59.402343 33.304688.085938 62.417969 22.492188 71.019532 54.671875 32.210937 8.628906 54.613281 37.8125 54.628906 71.15625zm-404.664062-21.476562c9.027343-29.5 35.425781-50.292969 66.222656-52.15625v-.128906c.078125-48.402344 30.992187-91.375 76.863281-106.832032-22.976563-20.917968-58.558594-19.253906-79.476563 3.722656-8.6875 9.542969-13.832031 21.78125-14.566406 34.667969-.308594 4.78125-4.4375 8.410157-9.21875 8.101563-2.542968-.164063-4.882812-1.433594-6.402344-3.476563-6.46875-8.984375-16.871093-14.304687-27.945312-14.285156-19.167969 0-34.710938 15.542969-34.710938 34.710937 0 4.792969-3.886718 8.679688-8.675781 8.679688h-8.679687c-23.964844 0-43.390625 19.425781-43.390625 43.390625 0 23.960937 19.425781 43.386719 43.390625 43.386719h45.5c.367187.050781.730468.125 1.089844.21875zm200.195312 60.527344h-57.882812l-30.078126 112.816406h32.109376c4.792968.003906 8.671874 3.890625 8.667968 8.683594 0 .992187-.167968 1.976562-.503906 2.910156l-25.164062 70.53125 77.335937-99.480469h-34.867187c-4.792969-.003906-8.675782-3.890625-8.675782-8.683594.003906-1.25.273438-2.488281.796875-3.625zm187.113281-39.050782c0-27.171875-19.386719-50.476562-46.105469-55.417968-3.527343-.65625-6.285156-3.414063-6.941406-6.941407-4.9375-26.726562-28.25-46.121093-55.429687-46.113281h-5.207031c-3.382813-.007812-6.457032-1.984375-7.867188-5.058594-21.90625-47.925781-78.511719-69.015625-126.433594-47.113281-33.996094 15.542969-55.789062 49.503906-55.746094 86.882813v8.675781c0 4.792969-3.882812 8.679687-8.675781 8.679687h-4.339843c-31.152344 0-56.40625 25.253906-56.40625 56.40625s25.253906 56.40625 56.40625 56.40625h49.160156l7.542968-28.273437c1.011719-3.796875 4.453126-6.4375 8.382813-6.4375h78.101563c4.792968.003906 8.675781 3.890625 8.671874 8.683593 0 1.25-.269531 2.484376-.792968 3.621094l-10.308594 22.40625h119.582031c31.136719-.035156 56.367188-25.269531 56.40625-56.40625zm-130.167969 39.050782h34.710938v-17.355469h-34.710938zm52.066407 0h17.355469v-17.355469h-17.355469zm-234.304688 0h17.355469v-17.355469h-17.355469zm0 0" fill="url(#a)"/></svg>